<svg id="Layer_1" data-name="Layer 1" xmlns="http://www.w3.org/2000/svg" viewBox="0 0 1252.56 563.69"><defs><style>.cls-1{fill:#2e2b5f;}.cls-2{fill:#4db9a8;}</style></defs><title>Artboard 2</title><polygon class="cls-1" points="231.63 284.27 231.63 349.3 296.73 349.3 296.73 414.35 166.65 414.35 166.65 414.28 166.59 414.28 166.59 284.27 231.63 284.27"/><polygon class="cls-2" points="388.99 220.99 296.74 220.98 395.2 318.59 296.73 416.16 388.99 416.16 487.19 318.66 388.99 220.99"/><rect class="cls-1" x="231.63" y="220.98" width="65.11" height="65.11"/><polygon class="cls-2" points="166.59 286.08 101.42 286.08 101.42 220.99 166.52 220.99 166.52 155.87 231.63 155.87 231.63 220.99 231.63 286.08 166.59 286.08"/><path class="cls-1" d="M587.79,211.48v71.6H574.93v-71.6H552.29V200.62h58.15v10.86Z"/><path class="cls-1" d="M652.78,273.24c6.12,0,10.91-.6,16.19-2.64l3,8.52a50,50,0,0,1-21.35,4c-21.1,0-31.18-12.48-31.18-32.38s10.56-32.62,28.19-32.62c17.38,0,26.14,14.51,23.62,34.66H632C632.52,265.81,638.39,273.24,652.78,273.24Zm-5.4-46.52c-9.11,0-14.62,7.19-15.34,18.58h28.78C660.82,234.51,655.9,226.72,647.38,226.72Z"/><path class="cls-1" d="M713.35,282.72c-18.45,0-29.76-12.14-29.76-32.26s11.31-32,29.76-32a51.65,51.65,0,0,1,16.31,2.85l-3.21,8.81c-4.88-1.43-7.74-2-11.79-2-11.78,0-18.81,8.21-18.81,22.38s7,22.38,18.81,22.38a35.5,35.5,0,0,0,13-2.86l2.74,9.29A41.7,41.7,0,0,1,713.35,282.72Z"/><path class="cls-1" d="M791.84,240.82v42.26H779.65V244.81c0-7.73-3.62-11.59-10.38-11.83-6.4-.12-12.55,3.62-16.54,6.64v43.46H740.54V200.62h12.19v27.65c6.4-5,13.16-7.36,19.68-7.49C784,220.66,791.84,227.42,791.84,240.82Z"/><path class="cls-1" d="M858,272.18c16.58,0,18.36-11.73,18.36-19.67V200.62h12.91v51.89c0,20.85-11.84,30.57-31.27,30.57s-31.28-9.72-31.28-30.57V200.62h13v51.89C839.78,260.45,841.67,272.18,858,272.18Z"/><path class="cls-1" d="M903.31,283.08V221.89h12.28v6.33c7.42-5.23,13.26-7.54,20.93-7.54,12.28,0,18.48,7,18.48,19.82v42.58H942.72V244.52c0-7.79-3.53-11.92-11.19-11.92-6.57,0-12.65,4.13-15.94,6.69v43.79Z"/><path class="cls-1" d="M965.47,207.15a6.53,6.53,0,1,1,13,0,6.53,6.53,0,0,1-13,0Zm12.8,75.93h-12.2V223.52h12.2Z"/><path class="cls-1" d="M1008.61,267.08c0,4.86,2.61,6.87,6.52,6.87a23.45,23.45,0,0,0,5.69-.59v8.77a64.49,64.49,0,0,1-10.31.95c-10.31,0-13.87-5.45-13.87-14.93v-36H988.7l1.78-9h6.16v-22.5l12,.21v22.29h12.8l-1.78,9h-11Z"/><path class="cls-1" d="M1027.51,278.36v-9a56.67,56.67,0,0,0,20.52,4.49c10.5,0,13-5.31,13-8.38,0-5.66-6.49-7.67-13.57-10-8.61-2.94-18.75-6.6-18.75-18.16s9-18.64,24.89-18.64a47.44,47.44,0,0,1,19.81,4.37v8.84c-7.07-3.42-12.5-4.24-16.75-4.24-10.73,0-14.5,5-14.5,8.73,0,5.66,6.95,7.78,14.5,10.38,8.61,3.06,18,6.84,18,17.45,0,11.8-10,18.88-24.3,18.88A58.08,58.08,0,0,1,1027.51,278.36Z"/><path class="cls-1" d="M601.08,386.61v8.85h-2.55a15.42,15.42,0,0,1-12.95-6.66c-3.29,3.92-8,6.3-14.6,6.3-10.3,0-18.69-8.67-18.69-19.25v-7.48a18.8,18.8,0,0,1,19.24-19.24h20.16v30.64a6.55,6.55,0,0,0,6.84,6.84Zm-41.59-51.43a5.43,5.43,0,1,1,5.47,5.48A5.47,5.47,0,0,1,559.49,335.18Zm23.44,22.7h-11.4c-6.11,0-10.4,4.29-10.4,10.49v7.48c0,5.75,4.47,10.49,9.85,10.49a14.8,14.8,0,0,0,11.95-5.65Zm-7.11-22.7a5.53,5.53,0,0,1,5.47-5.38,5.43,5.43,0,1,1,0,10.86A5.55,5.55,0,0,1,575.82,335.18Z"/><path class="cls-1" d="M638.84,386.61v8.85h-8.39a14,14,0,0,1-10.4-5.11c-2.46,3-6.11,5.11-11.58,5.11h-8.12L596.52,394v-5.93l3.83-1.46h8.21c5.29,0,7.11-3.37,7.11-7.57V352.32h8.85v23.53a20.09,20.09,0,0,1-.09,2.28V379c0,4.2,2,7.57,7.2,7.57Zm-22,23.62a5.48,5.48,0,0,1-5.47,5.47,5.43,5.43,0,1,1,0-10.86A5.47,5.47,0,0,1,616.85,410.23Zm16.32,0a5.48,5.48,0,0,1-5.47,5.47,5.43,5.43,0,1,1,0-10.86A5.47,5.47,0,0,1,633.17,410.23Z"/><path class="cls-1" d="M667.29,386.61v8.85H663.1a14,14,0,0,1-10.49-5.11c-2.37,3-6,5.11-11.49,5.11h-3.47L633.82,394v-5.93l3.83-1.46h3.56c5.11,0,7-3.28,7.11-7.38l-.09-26.91h8.85V379c0,4.2,2,7.57,7.2,7.57Zm-20.88-51.34a5.43,5.43,0,1,1,10.85,0,5.43,5.43,0,1,1-10.85,0Z"/><path class="cls-1" d="M719.19,386.61v8.85H666.11L662.37,394v-5.93l3.74-1.46h11.67a14.18,14.18,0,0,1-4.56-10.48v-7.58c0-11,7.57-19.33,19.7-19.33s19.7,8,19.7,19.33v7.58a14.18,14.18,0,0,1-4.56,10.48Zm-41-51.43a5.43,5.43,0,1,1,5.47,5.47A5.47,5.47,0,0,1,678.24,335.18Zm25.62,33.37c0-6.2-3.92-10.48-10.76-10.48-7.29,0-11.12,4-11.12,10.48v7.58a10.78,10.78,0,0,0,10.76,10.48c7.11,0,11.12-4.74,11.12-10.48Zm-9.3-33.37A5.53,5.53,0,0,1,700,329.8a5.43,5.43,0,1,1,0,10.85A5.55,5.55,0,0,1,694.56,335.18Z"/><path class="cls-1" d="M759,386.61v8.85H748.28a14.06,14.06,0,0,1-10.49-5.11c-2.37,3-6,5.11-11.49,5.11h-7.84L714.63,394v-5.93l3.83-1.46h7.93c5.11,0,7-3.28,7.12-7.38l-.1-26.91h8.85V379c0,4.2,2,7.57,7.21,7.57ZM724.2,335.23a5.43,5.43,0,1,1,10.85,0,5.43,5.43,0,1,1-10.85,0Zm16.32,0a5.61,5.61,0,0,1,5.47-5.47,5.55,5.55,0,0,1,5.48,5.47A5.49,5.49,0,0,1,746,340.7,5.55,5.55,0,0,1,740.52,335.23Z"/><path class="cls-1" d="M776.64,329.8v55.54a10,10,0,0,1-10.12,10.12h-8.21L754.48,394v-5.93l3.83-1.37v-.09h5.48a3.94,3.94,0,0,0,4-4.28V329.8Z"/><path class="cls-1" d="M789.41,395.46V329.8h8.85v65.66Z"/><path class="cls-1" d="M834.74,361.9v14.5c0,6,4.29,10.21,10.3,10.21h33.11c5.2,0,7.21-3.37,7.21-7.57V350h8.75V382.6a12.54,12.54,0,0,1-12.77,12.86H845c-10.94,0-19.06-8.12-19.06-19.06V361.9Zm10.94-26.63a5.43,5.43,0,1,1,10.86,0,5.43,5.43,0,1,1-10.86,0Zm16.33,0a5.61,5.61,0,0,1,5.47-5.47,5.55,5.55,0,0,1,5.47,5.47,5.49,5.49,0,0,1-5.47,5.48A5.55,5.55,0,0,1,862,335.27Z"/><path class="cls-1" d="M906.15,395.46V329.8H915v65.66Z"/><path class="cls-1" d="M973.18,386.61v8.85H926.4v-8.85h28V369.19c0-6.56-4.56-11.12-11-11.12h-9.85v-8.76h9.85a19.42,19.42,0,0,1,19.88,19.88v17.42Z"/><path class="cls-1" d="M1026.26,386.61v8.85H972.45L968.62,394v-5.93l3.83-1.46h40.77c-1.64-1.46-3.74-6.93-6.38-12.58-7.21-14.6-16.24-19.52-29.83-14.23v-8c15.69-6,30.37.92,39.4,21.16C1022,386.07,1023.8,386.25,1026.26,386.61Z"/><path class="cls-1" d="M1074.69,368.46v31.1c0,12.77-11.13,19.61-32.38,15.33v-8.21c17.79,2.73,23.63-.91,23.63-9.12v-2.19h-12c-10.31-.09-18.61-8.76-18.61-19.34v-7.57c0-11,8.21-19.33,19.25-19.33h1C1066.48,349.13,1074.69,357.43,1074.69,368.46ZM1055.54,358h-1c-6.11,0-10.4,4.28-10.4,10.48V376c0,5.75,4.56,10.49,9.85,10.49h12V368.46C1065.94,362.26,1061.65,358,1055.54,358Z"/></svg>